<svg width="451" height="481" viewBox="0 0 451 481" fill="none" xmlns="http://www.w3.org/2000/svg">
<g clip-path="url(#clip0_1_72)">
<path d="M225.333 478.97C338.301 478.97 429.879 387.392 429.879 274.424C429.879 161.457 338.301 69.8788 225.333 69.8788C112.366 69.8788 20.7878 161.457 20.7878 274.424C20.7878 387.392 112.366 478.97 225.333 478.97Z" fill="#E6E6E6"/>
<mask id="mask0_1_72" style="mask-type:luminance" maskUnits="userSpaceOnUse" x="20" y="69" width="410" height="410">
<path d="M225.333 478.97C338.301 478.97 429.879 387.392 429.879 274.424C429.879 161.457 338.301 69.8788 225.333 69.8788C112.366 69.8788 20.7878 161.457 20.7878 274.424C20.7878 387.392 112.366 478.97 225.333 478.97Z" fill="white"/>
</mask>
<g mask="url(#mask0_1_72)">
<path d="M429.879 69.8788H20.7878V478.97H429.879V69.8788Z" fill="#DF95FE"/>
</g>
<mask id="mask1_1_72" style="mask-type:luminance" maskUnits="userSpaceOnUse" x="0" y="1" width="451" height="478">
<path d="M20.7879 274.424C20.7879 387.392 112.366 478.97 225.333 478.97C338.301 478.97 429.879 387.392 429.879 274.424H450.333V1.69698H0.333313V274.424H20.7879Z" fill="white"/>
</mask>
<g mask="url(#mask1_1_72)">
<path d="M266.242 309.557V340.902H273.061C340.841 340.902 395.788 395.848 395.788 463.629V478.97H54.8788V463.629C54.8788 395.848 109.826 340.902 177.606 340.902H184.424V309.557C155.042 295.599 133.922 267.073 130.399 233.313C120.47 231.909 112.833 223.377 112.833 213.061V189.197C112.833 179.062 120.205 170.648 129.879 169.025V158.515C129.879 105.797 172.615 63.0606 225.333 63.0606C278.051 63.0606 320.788 105.797 320.788 158.515V169.025C330.462 170.648 337.833 179.062 337.833 189.197V213.061C337.833 223.377 330.196 231.909 320.268 233.313C316.744 267.073 295.624 295.599 266.242 309.557Z" fill="#D0C6AC"/>
<mask id="mask2_1_72" style="mask-type:luminance" maskUnits="userSpaceOnUse" x="54" y="63" width="342" height="416">
<path d="M266.242 309.557V340.902H273.061C340.841 340.902 395.788 395.848 395.788 463.629V478.97H54.8788V463.629C54.8788 395.848 109.826 340.902 177.606 340.902H184.424V309.557C155.042 295.599 133.922 267.073 130.399 233.313C120.47 231.909 112.833 223.377 112.833 213.061V189.197C112.833 179.062 120.205 170.648 129.879 169.025V158.515C129.879 105.797 172.615 63.0606 225.333 63.0606C278.051 63.0606 320.788 105.797 320.788 158.515V169.025C330.462 170.648 337.833 179.062 337.833 189.197V213.061C337.833 223.377 330.196 231.909 320.268 233.313C316.744 267.073 295.624 295.599 266.242 309.557Z" fill="white"/>
</mask>
<g mask="url(#mask2_1_72)">
<path d="M450.333 63.0606H0.333313V478.97H450.333V63.0606Z" fill="#AE5D29"/>
</g>
<mask id="mask3_1_72" style="mask-type:luminance" maskUnits="userSpaceOnUse" x="54" y="63" width="342" height="416">
<path d="M266.242 309.557V340.902H273.061C340.841 340.902 395.788 395.848 395.788 463.629V478.97H54.8788V463.629C54.8788 395.848 109.826 340.902 177.606 340.902H184.424V309.557C155.042 295.599 133.922 267.073 130.399 233.313C120.47 231.909 112.833 223.377 112.833 213.061V189.197C112.833 179.062 120.205 170.648 129.879 169.025V158.515C129.879 105.797 172.615 63.0606 225.333 63.0606C278.051 63.0606 320.788 105.797 320.788 158.515V169.025C330.462 170.648 337.833 179.062 337.833 189.197V213.061C337.833 223.377 330.196 231.909 320.268 233.313C316.744 267.073 295.624 295.599 266.242 309.557Z" fill="white"/>
</mask>
<g mask="url(#mask3_1_72)">
<path fill-rule="evenodd" clip-rule="evenodd" d="M320.788 197.72V236.924C320.788 289.642 278.051 332.379 225.333 332.379C172.615 332.379 129.879 289.642 129.879 236.924V197.72V223.288C129.879 276.006 172.615 318.742 225.333 318.742C278.051 318.742 320.788 276.006 320.788 223.288V197.72Z" fill="black" fill-opacity="0.1"/>
</g>
<path fill-rule="evenodd" clip-rule="evenodd" d="M184.424 313.75C153.881 317.167 130.356 326.501 129.886 350.524C85.8102 369.143 54.8788 412.773 54.8788 463.628V478.97H395.788V463.628C395.788 412.773 364.856 369.143 320.781 350.524C320.311 326.501 296.786 317.167 266.242 313.75V346.015C266.242 368.609 247.927 386.924 225.333 386.924C202.74 386.924 184.424 368.609 184.424 346.015V313.75Z" fill="#B7C1DB"/>
<mask id="mask4_1_72" style="mask-type:luminance" maskUnits="userSpaceOnUse" x="54" y="313" width="342" height="166">
<path fill-rule="evenodd" clip-rule="evenodd" d="M184.424 313.75C153.881 317.167 130.356 326.501 129.886 350.524C85.8102 369.143 54.8788 412.773 54.8788 463.628V478.97H395.788V463.628C395.788 412.773 364.856 369.143 320.781 350.524C320.311 326.501 296.786 317.167 266.242 313.75V346.015C266.242 368.609 247.927 386.924 225.333 386.924C202.74 386.924 184.424 368.609 184.424 346.015V313.75Z" fill="white"/>
</mask>
<g mask="url(#mask4_1_72)">
<path d="M450.333 291.47H0.333313V478.97H450.333V291.47Z" fill="#FF488E"/>
</g>
<mask id="mask5_1_72" style="mask-type:luminance" maskUnits="userSpaceOnUse" x="54" y="313" width="342" height="166">
<path fill-rule="evenodd" clip-rule="evenodd" d="M184.424 313.75C153.881 317.167 130.356 326.501 129.886 350.524C85.8102 369.143 54.8788 412.773 54.8788 463.628V478.97H395.788V463.628C395.788 412.773 364.856 369.143 320.781 350.524C320.311 326.501 296.786 317.167 266.242 313.75V346.015C266.242 368.609 247.927 386.924 225.333 386.924C202.74 386.924 184.424 368.609 184.424 346.015V313.75Z" fill="white"/>
</mask>
<g mask="url(#mask5_1_72)">
<path fill-rule="evenodd" clip-rule="evenodd" d="M174.197 396.707V478.97H162.265V390.589C166.022 392.822 170.015 394.869 174.197 396.707ZM288.402 390.589V459.367C288.402 462.662 285.73 465.333 282.436 465.333C279.141 465.333 276.47 462.662 276.47 459.367V396.707C280.651 394.869 284.645 392.822 288.402 390.589Z" fill="#F4F4F4"/>
</g>
<mask id="mask6_1_72" style="mask-type:luminance" maskUnits="userSpaceOnUse" x="54" y="313" width="342" height="166">
<path fill-rule="evenodd" clip-rule="evenodd" d="M184.424 313.75C153.881 317.167 130.356 326.501 129.886 350.524C85.8102 369.143 54.8788 412.773 54.8788 463.628V478.97H395.788V463.628C395.788 412.773 364.856 369.143 320.781 350.524C320.311 326.501 296.786 317.167 266.242 313.75V346.015C266.242 368.609 247.927 386.924 225.333 386.924C202.74 386.924 184.424 368.609 184.424 346.015V313.75Z" fill="white"/>
</mask>
<g mask="url(#mask6_1_72)">
<path fill-rule="evenodd" clip-rule="evenodd" d="M155.379 313.159C129.724 318.011 111.981 327.679 111.981 346.54C111.981 380.14 168.295 407.379 225.333 407.379C282.371 407.379 338.686 380.14 338.686 346.54C338.686 327.679 320.942 318.011 295.288 313.159C310.774 318.869 320.788 328.469 320.788 344.442C320.788 379.201 273.365 407.379 225.333 407.379C177.301 407.379 129.879 379.201 129.879 344.442C129.879 328.469 139.893 318.869 155.379 313.159Z" fill="black" fill-opacity="0.16"/>
</g>
<path fill-rule="evenodd" clip-rule="evenodd" d="M201.47 255.674C201.47 268.854 212.154 279.538 225.333 279.538C238.513 279.538 249.197 268.854 249.197 255.674" fill="black" fill-opacity="0.7"/>
<path fill-rule="evenodd" clip-rule="evenodd" d="M204.879 223.288C204.879 230.819 214.037 236.924 225.333 236.924C236.63 236.924 245.788 230.819 245.788 223.288" fill="black" fill-opacity="0.16"/>
<path fill-rule="evenodd" clip-rule="evenodd" d="M157.425 193.369C160.572 186.893 167.659 182.379 175.897 182.379C184.107 182.379 191.173 186.861 194.337 193.3C195.277 195.213 193.939 196.778 192.59 195.618C188.412 192.026 182.479 189.783 175.897 189.783C169.522 189.783 163.754 191.888 159.602 195.285C158.084 196.527 156.504 195.262 157.425 193.369Z" fill="black" fill-opacity="0.6"/>
<path fill-rule="evenodd" clip-rule="evenodd" d="M256.288 193.369C259.436 186.893 266.523 182.379 274.761 182.379C282.97 182.379 290.036 186.861 293.2 193.3C294.14 195.213 292.803 196.778 291.454 195.618C287.276 192.026 281.343 189.783 274.761 189.783C268.385 189.783 262.618 191.888 258.465 195.285C256.947 196.527 255.368 195.262 256.288 193.369Z" fill="black" fill-opacity="0.6"/>
<path fill-rule="evenodd" clip-rule="evenodd" d="M175.13 151.95C165.232 152.407 149.229 159.6 149.641 169.581C149.655 169.908 150.135 170.052 150.369 169.8C155.065 164.756 188.407 159.659 200.151 162.36C201.225 162.607 202.042 161.547 201.361 160.781C195.528 154.222 183.998 151.532 175.13 151.95Z" fill="black" fill-opacity="0.6"/>
<path fill-rule="evenodd" clip-rule="evenodd" d="M277.241 151.95C287.14 152.407 303.142 159.6 302.73 169.581C302.716 169.908 302.236 170.052 302.002 169.8C297.306 164.756 263.964 159.659 252.221 162.36C251.146 162.607 250.329 161.547 251.01 160.781C256.843 154.222 268.373 151.532 277.241 151.95Z" fill="black" fill-opacity="0.6"/>
<mask id="mask7_1_72" style="mask-type:luminance" maskUnits="userSpaceOnUse" x="0" y="1" width="451" height="478">
<path d="M450.333 1.69698H0.333313V478.97H450.333V1.69698Z" fill="white"/>
</mask>
<g mask="url(#mask7_1_72)">
<path fill-rule="evenodd" clip-rule="evenodd" d="M135.027 127.51C131.69 137.232 129.879 147.662 129.879 158.515V169.025C120.205 170.648 112.833 179.062 112.833 189.197V211.356C112.833 221.615 120.386 230.11 130.234 231.584C133.206 266.097 154.542 295.361 184.424 309.557V328.211C176.405 331.978 167.45 334.083 158.004 334.083C142.993 334.083 129.224 328.767 118.476 319.915C115.223 320.267 111.919 320.447 108.572 320.447C72.6155 320.447 41.5195 299.637 26.6704 269.404C13.8577 260.658 5.44695 245.938 5.44695 229.254C5.44695 225.649 5.8395 222.137 6.58418 218.756C2.54307 207.967 0.333313 196.283 0.333313 184.083C0.333313 162.34 7.35283 142.235 19.2494 125.913C19.1394 124.579 19.0833 123.23 19.0833 121.867C19.0833 102.61 30.2881 85.9702 46.5338 78.1111C60.9073 47.2111 91.6248 25.4513 127.578 23.9401C136.325 15.4481 148.258 10.2197 161.413 10.2197C165.379 10.2197 169.235 10.695 172.925 11.5919C189.156 5.20492 206.835 1.69696 225.333 1.69696C242.969 1.69696 259.859 4.8852 275.46 10.7167C277.738 10.3892 280.067 10.2197 282.436 10.2197C295.59 10.2197 307.523 15.4481 316.271 23.9401C352.224 25.4513 382.941 47.2111 397.315 78.1111C413.56 85.9702 424.765 102.61 424.765 121.867C424.765 123.23 424.709 124.579 424.599 125.913C436.496 142.235 443.515 162.34 443.515 184.083C443.515 196.283 441.305 207.967 437.264 218.756C438.009 222.137 438.402 225.649 438.402 229.254C438.402 245.938 429.991 260.658 417.178 269.404C402.329 299.637 371.233 320.447 335.276 320.447C331.93 320.447 328.626 320.267 325.372 319.915C314.625 328.767 300.855 334.083 285.845 334.083C278.996 334.083 272.405 332.977 266.242 330.932V309.557C296.124 295.361 317.461 266.097 320.432 231.584C330.281 230.11 337.833 221.615 337.833 211.356V189.197C337.833 179.062 330.462 170.648 320.788 169.025V158.515C320.788 149.24 319.465 140.274 316.998 131.795L319.344 153.733L300.014 112.824L223.078 79.5448L171.748 97.5408L135.103 131.957L135.027 127.51Z" fill="#314756"/>
<mask id="mask8_1_72" style="mask-type:luminance" maskUnits="userSpaceOnUse" x="0" y="1" width="444" height="334">
<path fill-rule="evenodd" clip-rule="evenodd" d="M135.027 127.51C131.69 137.232 129.879 147.662 129.879 158.515V169.025C120.205 170.648 112.833 179.062 112.833 189.197V211.356C112.833 221.615 120.386 230.11 130.234 231.584C133.206 266.097 154.542 295.361 184.424 309.557V328.211C176.405 331.978 167.45 334.083 158.004 334.083C142.993 334.083 129.224 328.767 118.476 319.915C115.223 320.267 111.919 320.447 108.572 320.447C72.6155 320.447 41.5195 299.637 26.6704 269.404C13.8577 260.658 5.44695 245.938 5.44695 229.254C5.44695 225.649 5.8395 222.137 6.58418 218.756C2.54307 207.967 0.333313 196.283 0.333313 184.083C0.333313 162.34 7.35283 142.235 19.2494 125.913C19.1394 124.579 19.0833 123.23 19.0833 121.867C19.0833 102.61 30.2881 85.9702 46.5338 78.1111C60.9073 47.2111 91.6248 25.4513 127.578 23.9401C136.325 15.4481 148.258 10.2197 161.413 10.2197C165.379 10.2197 169.235 10.695 172.925 11.5919C189.156 5.20492 206.835 1.69696 225.333 1.69696C242.969 1.69696 259.859 4.8852 275.46 10.7167C277.738 10.3892 280.067 10.2197 282.436 10.2197C295.59 10.2197 307.523 15.4481 316.271 23.9401C352.224 25.4513 382.941 47.2111 397.315 78.1111C413.56 85.9702 424.765 102.61 424.765 121.867C424.765 123.23 424.709 124.579 424.599 125.913C436.496 142.235 443.515 162.34 443.515 184.083C443.515 196.283 441.305 207.967 437.264 218.756C438.009 222.137 438.402 225.649 438.402 229.254C438.402 245.938 429.991 260.658 417.178 269.404C402.329 299.637 371.233 320.447 335.276 320.447C331.93 320.447 328.626 320.267 325.372 319.915C314.625 328.767 300.855 334.083 285.845 334.083C278.996 334.083 272.405 332.977 266.242 330.932V309.557C296.124 295.361 317.461 266.097 320.432 231.584C330.281 230.11 337.833 221.615 337.833 211.356V189.197C337.833 179.062 330.462 170.648 320.788 169.025V158.515C320.788 149.24 319.465 140.274 316.998 131.795L319.344 153.733L300.014 112.824L223.078 79.5448L171.748 97.5408L135.103 131.957L135.027 127.51Z" fill="white"/>
</mask>
<g mask="url(#mask8_1_72)">
<path d="M448.629 1.69696H-1.37122V478.97H448.629V1.69696Z" fill="#4A312C"/>
</g>
<path fill-rule="evenodd" clip-rule="evenodd" d="M129.25 170.404C128.542 166.055 128.174 161.602 128.174 157.07C128.174 107.974 171.292 68.1742 224.481 68.1742C277.67 68.1742 320.788 107.974 320.788 157.07C320.788 161.602 320.42 166.055 319.712 170.404C312.742 127.634 272.76 94.843 224.481 94.843C176.202 94.843 136.22 127.634 129.25 170.404Z" fill="#92D9FF"/>
<g filter="url(#filter0_d_1_72)">
<path fill-rule="evenodd" clip-rule="evenodd" d="M241.466 174.528C248.14 161.002 262.071 151.697 278.174 151.697C293.378 151.697 306.645 159.991 313.697 172.302C314.055 172.204 314.433 172.152 314.822 172.152H328.458C330.812 172.152 332.72 174.059 332.72 176.413C332.72 178.766 330.812 180.674 328.458 180.674H317.316C318.465 184.449 319.083 188.455 319.083 192.606C319.083 215.2 300.768 233.515 278.174 233.515C255.581 233.515 237.265 215.2 237.265 192.606C237.265 190.182 237.476 187.808 237.88 185.5C237.736 178.041 232.004 172.152 225.099 172.152C218.729 172.152 213.358 177.162 212.45 183.794C213.073 186.632 213.402 189.581 213.402 192.606C213.402 215.2 195.086 233.515 172.492 233.515C149.899 233.515 131.583 215.2 131.583 192.606C131.583 188.455 132.201 184.449 133.351 180.674H122.208C119.855 180.674 117.947 178.766 117.947 176.413C117.947 174.059 119.855 172.152 122.208 172.152H135.845C136.234 172.152 136.611 172.204 136.97 172.302C144.022 159.991 157.288 151.697 172.492 151.697C188.434 151.697 202.245 160.815 208.996 174.12C212.537 168.809 218.429 165.333 225.099 165.333C231.938 165.333 237.959 168.988 241.466 174.528ZM172.492 226.697C191.32 226.697 206.583 211.434 206.583 192.606C206.583 173.778 191.32 158.515 172.492 158.515C153.665 158.515 138.402 173.778 138.402 192.606C138.402 211.434 153.665 226.697 172.492 226.697ZM278.174 226.697C297.002 226.697 312.265 211.434 312.265 192.606C312.265 173.778 297.002 158.515 278.174 158.515C259.346 158.515 244.083 173.778 244.083 192.606C244.083 211.434 259.346 226.697 278.174 226.697Z" fill="black"/>
</g>
<path fill-rule="evenodd" clip-rule="evenodd" d="M241.466 174.528C248.14 161.002 262.071 151.697 278.174 151.697C293.378 151.697 306.645 159.991 313.697 172.302C314.055 172.204 314.433 172.152 314.822 172.152H328.458C330.812 172.152 332.72 174.059 332.72 176.413C332.72 178.766 330.812 180.674 328.458 180.674H317.316C318.465 184.449 319.083 188.455 319.083 192.606C319.083 215.2 300.768 233.515 278.174 233.515C255.581 233.515 237.265 215.2 237.265 192.606C237.265 190.182 237.476 187.808 237.88 185.5C237.736 178.041 232.004 172.152 225.099 172.152C218.729 172.152 213.358 177.162 212.45 183.794C213.073 186.632 213.402 189.581 213.402 192.606C213.402 215.2 195.086 233.515 172.492 233.515C149.899 233.515 131.583 215.2 131.583 192.606C131.583 188.455 132.201 184.449 133.351 180.674H122.208C119.855 180.674 117.947 178.766 117.947 176.413C117.947 174.059 119.855 172.152 122.208 172.152H135.845C136.234 172.152 136.611 172.204 136.97 172.302C144.022 159.991 157.288 151.697 172.492 151.697C188.434 151.697 202.245 160.815 208.996 174.12C212.537 168.809 218.429 165.333 225.099 165.333C231.938 165.333 237.959 168.988 241.466 174.528ZM172.492 226.697C191.32 226.697 206.583 211.434 206.583 192.606C206.583 173.778 191.32 158.515 172.492 158.515C153.665 158.515 138.402 173.778 138.402 192.606C138.402 211.434 153.665 226.697 172.492 226.697ZM278.174 226.697C297.002 226.697 312.265 211.434 312.265 192.606C312.265 173.778 297.002 158.515 278.174 158.515C259.346 158.515 244.083 173.778 244.083 192.606C244.083 211.434 259.346 226.697 278.174 226.697Z" fill="#252C2F"/>
</g>
</g>
</g>
<defs>
<filter id="filter0_d_1_72" x="117.947" y="151.697" width="214.773" height="85.2273" filterUnits="userSpaceOnUse" color-interpolation-filters="sRGB">
<feFlood flood-opacity="0" result="BackgroundImageFix"/>
<feColorMatrix in="SourceAlpha" type="matrix" values="0 0 0 0 0 0 0 0 0 0 0 0 0 0 0 0 0 0 127 0" result="hardAlpha"/>
<feOffset dy="3.40909"/>
<feColorMatrix type="matrix" values="0 0 0 0 0 0 0 0 0 0 0 0 0 0 0 0 0 0 0.1 0"/>
<feBlend mode="normal" in2="BackgroundImageFix" result="effect1_dropShadow_1_72"/>
<feBlend mode="normal" in="SourceGraphic" in2="effect1_dropShadow_1_72" result="shape"/>
</filter>
<clipPath id="clip0_1_72">
<rect width="450" height="480" fill="white" transform="translate(0.333313 0.333344)"/>
</clipPath>
</defs>
</svg>
