<svg width="603" height="565" viewBox="0 0 603 565" fill="none" xmlns="http://www.w3.org/2000/svg">
<g clip-path="url(#clip0_1_6)">
<path d="M379.03 535.493L360.777 564.425H397.283L379.03 535.493L360.777 564.425H397.283L379.03 535.493Z" fill="#F2F2F2"/>
<path d="M332.359 145.369V224.734C332.355 226.887 331.419 228.95 329.756 230.472C328.093 231.993 325.839 232.85 323.487 232.854H256.964L257.576 232.137C292.574 210.755 317.375 182.227 331.577 146.278L332.359 145.369Z" fill="#F2F2F2"/>
<path d="M399.769 66.3236H22.7731C16.7355 66.3303 10.9473 68.5281 6.67812 72.435C2.40891 76.3418 0.00728033 81.6388 0 87.1639V294.391C0.00728033 299.916 2.40891 305.213 6.67812 309.12C10.9473 313.027 16.7355 315.225 22.7731 315.232H399.769C405.806 315.225 411.595 313.027 415.864 309.12C420.133 305.213 422.535 299.916 422.542 294.391V87.1639C422.535 81.6388 420.133 76.3418 415.864 72.4349C411.595 68.5281 405.806 66.3303 399.769 66.3236ZM420.535 294.391C420.535 296.887 419.998 299.358 418.955 301.664C417.912 303.97 416.382 306.065 414.454 307.83C412.525 309.594 410.236 310.994 407.716 311.949C405.197 312.904 402.496 313.395 399.769 313.395H22.7731C20.046 313.395 17.3454 312.904 14.8257 311.949C12.3061 310.994 10.0167 309.594 8.08826 307.83C6.15987 306.065 4.6303 303.97 3.58691 301.664C2.54353 299.358 2.00678 296.887 2.00733 294.391V211.149C2.00733 206.3 2.26492 201.508 2.78013 196.775C6.65509 161.511 24.7106 128.822 53.4414 105.055C82.1722 81.2887 119.528 68.1394 158.258 68.1606H399.769C405.276 68.1611 410.558 70.1634 414.452 73.7271C418.346 77.2908 420.534 82.1241 420.535 87.1639V294.391Z" fill="#E6E6E6"/>
<path d="M279.37 162.957H83.284C81.6775 162.957 80.1369 163.541 79.001 164.58C77.865 165.62 77.2269 167.03 77.2269 168.5C77.2269 169.97 77.865 171.38 79.001 172.419C80.1369 173.459 81.6775 174.043 83.284 174.043H279.37C280.976 174.043 282.517 173.459 283.653 172.419C284.788 171.38 285.427 169.97 285.427 168.5C285.427 167.03 284.788 165.62 283.653 164.58C282.517 163.541 280.976 162.957 279.37 162.957Z" fill="#E6E6E6"/>
<path d="M144.076 131.866H83.284C81.6762 131.866 80.1343 132.451 78.9974 133.491C77.8605 134.532 77.2219 135.943 77.2219 137.414C77.2219 138.885 77.8605 140.296 78.9974 141.337C80.1343 142.377 81.6762 142.962 83.284 142.962H144.076C145.684 142.962 147.226 142.377 148.362 141.337C149.499 140.296 150.138 138.885 150.138 137.414C150.138 135.943 149.499 134.532 148.362 133.491C147.226 132.451 145.684 131.866 144.076 131.866Z" fill="#E6E6E6"/>
<path d="M83.284 162.957H113.344C109.55 166.934 105.43 170.64 101.019 174.043H83.284C81.6775 174.043 80.1369 173.459 79.001 172.419C77.865 171.38 77.2269 169.97 77.2269 168.5C77.2269 167.03 77.865 165.62 79.001 164.58C80.1369 163.541 81.6775 162.957 83.284 162.957Z" fill="#6C63FF"/>
<path d="M83.284 131.866H134.019C132.4 135.664 130.533 139.369 128.429 142.962H83.284C81.6762 142.962 80.1343 142.377 78.9974 141.337C77.8605 140.296 77.2218 138.885 77.2218 137.414C77.2218 135.943 77.8605 134.532 78.9974 133.491C80.1343 132.451 81.6762 131.866 83.284 131.866Z" fill="#6C63FF"/>
<path d="M138.887 69.2536C103.778 73.2761 71.1994 88.0792 46.4762 111.243C21.7531 134.407 6.34821 164.561 2.78013 196.775C1.84673 196.61 0.92337 196.417 0 196.215V87.1639C0.00728033 81.6388 2.40891 76.3418 6.67812 72.435C10.9473 68.5281 16.7355 66.3303 22.7731 66.3236H138.084C138.375 67.288 138.636 68.2708 138.887 69.2536Z" fill="#6C63FF"/>
<path d="M137.752 85.4268C148.221 85.4268 156.708 77.66 156.708 68.0792C156.708 58.4984 148.221 50.7316 137.752 50.7316C127.283 50.7316 118.795 58.4984 118.795 68.0792C118.795 77.66 127.283 85.4268 137.752 85.4268Z" fill="white"/>
<path d="M137.752 86.3452C133.804 86.3452 129.945 85.274 126.663 83.2669C123.38 81.2598 120.822 78.407 119.311 75.0693C117.8 71.7317 117.405 68.059 118.175 64.5157C118.945 60.9725 120.846 57.7178 123.638 55.1632C126.429 52.6087 129.986 50.869 133.858 50.1642C137.73 49.4594 141.743 49.8211 145.39 51.2037C149.037 52.5862 152.155 54.9274 154.348 57.9312C156.541 60.935 157.712 64.4666 157.712 68.0792C157.706 72.922 155.601 77.5648 151.859 80.9892C148.117 84.4135 143.044 86.3397 137.752 86.3452ZM137.752 51.6502C134.201 51.6502 130.73 52.6137 127.778 54.419C124.825 56.2242 122.524 58.7901 121.166 61.7921C119.807 64.7941 119.451 68.0975 120.144 71.2844C120.837 74.4713 122.547 77.3987 125.057 79.6963C127.568 81.994 130.767 83.5587 134.249 84.1926C137.732 84.8265 141.342 84.5012 144.622 83.2577C147.902 82.0142 150.706 79.9085 152.679 77.2067C154.652 74.505 155.705 71.3286 155.705 68.0792C155.699 63.7235 153.806 59.5475 150.44 56.4675C147.075 53.3875 142.512 51.655 137.752 51.6502Z" fill="#3F3D56"/>
<path d="M135.166 77.1077C134.838 77.1077 134.516 77.038 134.223 76.904C133.93 76.77 133.675 76.5754 133.479 76.3357L128.307 70.0253C128.141 69.8226 128.02 69.5919 127.952 69.3464C127.883 69.101 127.868 68.8455 127.907 68.5946C127.946 68.3438 128.039 68.1025 128.18 67.8844C128.321 67.6664 128.508 67.4759 128.729 67.3238C128.951 67.1718 129.203 67.0612 129.471 66.9983C129.739 66.9354 130.019 66.9215 130.293 66.9574C130.567 66.9932 130.83 67.0781 131.069 67.2072C131.307 67.3363 131.515 67.5071 131.681 67.7099L135.065 71.8379L143.755 59.9094C144.065 59.4844 144.548 59.1896 145.096 59.0897C145.643 58.9898 146.212 59.093 146.677 59.3766C147.142 59.6602 147.465 60.1011 147.575 60.6024C147.685 61.1037 147.573 61.6244 147.264 62.0503L136.921 76.2484C136.733 76.5052 136.482 76.7171 136.187 76.8665C135.892 77.0159 135.562 77.0984 135.225 77.1071L135.166 77.1077Z" fill="#6C63FF"/>
<path d="M287.298 207.585C297.767 207.585 306.254 199.818 306.254 190.237C306.254 180.656 297.767 172.889 287.298 172.889C276.828 172.889 268.341 180.656 268.341 190.237C268.341 199.818 276.828 207.585 287.298 207.585Z" fill="white"/>
<path d="M287.298 208.503C283.35 208.503 279.491 207.432 276.208 205.425C272.926 203.417 270.368 200.565 268.857 197.227C267.346 193.889 266.951 190.217 267.721 186.673C268.491 183.13 270.392 179.875 273.184 177.321C275.975 174.766 279.532 173.027 283.404 172.322C287.275 171.617 291.289 171.979 294.936 173.361C298.583 174.744 301.701 177.085 303.894 180.089C306.087 183.093 307.258 186.624 307.258 190.237C307.252 195.08 305.147 199.723 301.405 203.147C297.663 206.571 292.589 208.497 287.298 208.503ZM287.298 173.808C283.747 173.808 280.276 174.771 277.324 176.577C274.371 178.382 272.07 180.948 270.711 183.95C269.353 186.952 268.997 190.255 269.69 193.442C270.383 196.629 272.092 199.556 274.603 201.854C277.114 204.152 280.313 205.716 283.795 206.35C287.278 206.984 290.887 206.659 294.168 205.415C297.448 204.172 300.252 202.066 302.225 199.364C304.197 196.663 305.25 193.486 305.25 190.237C305.245 185.881 303.352 181.705 299.986 178.625C296.621 175.545 292.057 173.813 287.298 173.808Z" fill="#E6E6E6"/>
<path d="M284.712 199.266C284.384 199.266 284.061 199.196 283.769 199.062C283.476 198.928 283.221 198.733 283.025 198.494L277.853 192.183C277.687 191.98 277.566 191.75 277.497 191.504C277.429 191.259 277.414 191.003 277.453 190.752C277.532 190.246 277.828 189.789 278.275 189.482C278.722 189.175 279.285 189.043 279.838 189.115C280.392 189.188 280.892 189.458 281.227 189.868L284.61 193.996L293.3 182.067C293.611 181.642 294.093 181.347 294.641 181.248C295.189 181.148 295.758 181.251 296.223 181.534C296.688 181.818 297.011 182.259 297.121 182.76C297.231 183.262 297.119 183.782 296.81 184.208L286.466 198.406C286.279 198.663 286.028 198.875 285.732 199.024C285.437 199.174 285.107 199.256 284.77 199.265L284.712 199.266Z" fill="#E6E6E6"/>
<path d="M236.236 8.57735C227.866 2.97918 217.761 -0.0259334 207.394 0.00016861C199.549 0.0841226 191.846 1.92738 184.96 5.36846C178.074 8.80954 172.216 13.7434 167.897 19.7379C167.163 20.7652 168.77 22.0152 169.512 20.977C174.774 13.6471 182.382 7.98409 191.295 4.76309C198.464 2.23543 206.211 1.39539 213.826 2.32002C221.442 3.24465 228.681 5.90435 234.882 10.0552C235.97 10.7879 237.331 9.31439 236.236 8.57735Z" fill="#E6E6E6"/>
<path d="M156.062 13.0207L151.361 29.0052C151.333 29.1511 151.342 29.301 151.387 29.4433C151.432 29.5857 151.512 29.7166 151.621 29.8262C151.73 29.9358 151.865 30.021 152.016 30.0754C152.167 30.1297 152.329 30.1517 152.49 30.1397L172.163 27.2567C173.495 27.0616 173.321 25.1389 171.979 25.3355L152.306 28.2186L153.435 29.3531L158.136 13.3686C158.489 12.1683 156.413 11.83 156.062 13.0207Z" fill="#E6E6E6"/>
<path d="M166.776 226.815C175.145 232.413 185.25 235.418 195.617 235.392C203.462 235.308 211.165 233.465 218.051 230.024C224.937 226.583 230.796 221.649 235.114 215.655C235.849 214.627 234.242 213.377 233.499 214.415C228.238 221.745 220.63 227.408 211.717 230.629C204.548 233.157 196.801 233.997 189.185 233.072C181.57 232.148 174.33 229.488 168.13 225.337C167.041 224.605 165.681 226.078 166.776 226.815Z" fill="#E6E6E6"/>
<path d="M246.949 222.372L251.65 206.387C251.678 206.241 251.67 206.091 251.624 205.949C251.579 205.807 251.499 205.676 251.39 205.566C251.281 205.457 251.146 205.371 250.996 205.317C250.845 205.263 250.683 205.241 250.521 205.253L230.848 208.136C229.517 208.331 229.691 210.254 231.033 210.057L250.706 207.174L249.577 206.039L244.876 222.024C244.523 223.224 246.599 223.562 246.949 222.372Z" fill="#E6E6E6"/>
<path d="M413.891 46.3159H338.714C336.298 46.3159 333.98 45.4373 332.271 43.8736C330.563 42.3098 329.603 40.1889 329.603 37.9774C329.603 35.7659 330.563 33.645 332.271 32.0812C333.98 30.5174 336.298 29.6389 338.714 29.6389H413.891C416.307 29.6389 418.625 30.5174 420.334 32.0812C422.042 33.645 423.002 35.7659 423.002 37.9774C423.002 40.1889 422.042 42.3098 420.334 43.8736C418.625 45.4373 416.307 46.3159 413.891 46.3159Z" fill="#F2F2F2"/>
<path d="M412.163 37.9773L415.75 34.6941C415.852 34.6016 415.933 34.4917 415.989 34.3706C416.044 34.2494 416.073 34.1195 416.073 33.9882C416.073 33.8569 416.045 33.7268 415.991 33.6055C415.936 33.4841 415.855 33.3738 415.754 33.281C415.653 33.1882 415.532 33.1146 415.399 33.0645C415.267 33.0143 415.125 32.9887 414.981 32.989C414.838 32.9893 414.696 33.0155 414.563 33.0662C414.431 33.1169 414.311 33.1909 414.21 33.2842L410.622 36.5674L407.034 33.2842C406.933 33.1909 406.813 33.1169 406.681 33.0662C406.549 33.0155 406.407 32.9893 406.263 32.989C406.12 32.9887 405.978 33.0143 405.845 33.0645C405.712 33.1146 405.592 33.1882 405.49 33.281C405.389 33.3738 405.308 33.4841 405.254 33.6055C405.199 33.7268 405.171 33.8569 405.171 33.9882C405.172 34.1195 405.2 34.2494 405.256 34.3706C405.311 34.4917 405.392 34.6016 405.494 34.6941L409.082 37.9773L405.519 41.2372C405.417 41.3296 405.336 41.4395 405.281 41.5607C405.226 41.6818 405.197 41.8118 405.197 41.9431C405.196 42.0744 405.224 42.2044 405.279 42.3258C405.334 42.4471 405.414 42.5574 405.516 42.6502C405.617 42.7431 405.738 42.8167 405.87 42.8668C406.003 42.9169 406.145 42.9425 406.289 42.9422C406.432 42.942 406.574 42.9157 406.706 42.8651C406.839 42.8144 406.959 42.7403 407.06 42.6471L410.622 39.3872L414.184 42.6471C414.389 42.8326 414.666 42.9365 414.954 42.9359C415.242 42.9353 415.518 42.8303 415.722 42.6439C415.925 42.4575 416.04 42.2048 416.041 41.9412C416.041 41.6776 415.928 41.4244 415.725 41.2372L412.163 37.9773Z" fill="white"/>
<path d="M294.476 298.74C294.342 298.74 294.21 298.716 294.086 298.668C293.963 298.621 293.852 298.551 293.758 298.464L288.031 293.106C287.848 292.935 287.745 292.704 287.745 292.464C287.745 292.224 287.848 291.994 288.031 291.822L293.758 286.465C293.85 286.377 293.96 286.307 294.082 286.259C294.203 286.21 294.334 286.184 294.467 286.182C294.599 286.18 294.731 286.203 294.854 286.247C294.977 286.292 295.09 286.359 295.184 286.444C295.279 286.529 295.355 286.63 295.406 286.742C295.458 286.854 295.485 286.974 295.486 287.095C295.487 287.216 295.462 287.337 295.411 287.449C295.361 287.561 295.287 287.663 295.193 287.749L290.153 292.464L295.193 297.179C295.331 297.309 295.425 297.472 295.462 297.65C295.499 297.828 295.477 298.011 295.401 298.178C295.324 298.344 295.196 298.487 295.031 298.587C294.866 298.687 294.673 298.74 294.476 298.74Z" fill="#3F3D56"/>
<path d="M304.099 298.74C303.902 298.74 303.709 298.687 303.544 298.587C303.379 298.487 303.251 298.344 303.174 298.178C303.098 298.011 303.076 297.828 303.113 297.65C303.15 297.472 303.244 297.309 303.382 297.179L308.422 292.464L303.382 287.749C303.199 287.575 303.098 287.341 303.103 287.099C303.107 286.857 303.215 286.626 303.404 286.457C303.593 286.288 303.848 286.194 304.112 286.195C304.377 286.197 304.63 286.294 304.817 286.465L310.543 291.822C310.727 291.994 310.829 292.224 310.829 292.464C310.829 292.704 310.727 292.935 310.543 293.106L304.817 298.464C304.723 298.551 304.612 298.621 304.489 298.669C304.365 298.716 304.233 298.74 304.099 298.74Z" fill="#3F3D56"/>
<path d="M323.393 202.138C323.929 200.792 324.781 199.57 325.889 198.557C326.997 197.545 328.334 196.767 329.806 196.279C331.278 195.791 332.849 195.604 334.408 195.731C335.968 195.858 337.478 196.297 338.832 197.016L433.509 174.311L435.063 192.161L342.421 211.07C340.95 213.072 338.728 214.51 336.176 215.112C333.623 215.715 330.918 215.439 328.572 214.339C326.227 213.238 324.404 211.388 323.45 209.139C322.495 206.89 322.475 204.4 323.393 202.138Z" fill="#A0616A"/>
<path d="M466.133 170.707C463.88 167.738 460.733 165.432 457.074 164.071C453.415 162.71 449.402 162.352 445.525 163.04L410.711 169.221C410.711 169.221 422.696 205.937 437.873 205.126C444.27 204.784 452.365 201.345 459.591 197.481C462.027 196.188 464.144 194.447 465.809 192.369C467.474 190.29 468.651 187.919 469.266 185.404C469.88 182.889 469.919 180.285 469.38 177.755C468.841 175.226 467.735 172.826 466.133 170.707Z" fill="#3F3D56"/>
<path d="M431.263 545.737L422.038 545.667L417.954 512.345L431.569 512.45L431.263 545.737Z" fill="#A0616A"/>
<path d="M435.429 562.817L433.713 541.848L431.304 541.701L421.478 541.086L418.317 540.893L418.256 546.927L403.523 556.075C402.877 556.477 402.369 557.038 402.058 557.693C401.746 558.349 401.645 559.071 401.765 559.777C401.884 560.483 402.221 561.144 402.734 561.682C403.248 562.22 403.918 562.614 404.667 562.817C405.037 562.921 405.423 562.973 405.811 562.973L424.148 563.111L424.308 562.817L427.359 557.159L428.474 562.817L428.534 563.148L435.459 563.203L435.429 562.817Z" fill="#2F2E41"/>
<path d="M528.388 539.57L519.57 542.05L504.686 511.411L517.7 507.751L528.388 539.57Z" fill="#A0616A"/>
<path d="M529.442 535.189L527.093 535.713L517.529 537.834H517.519L514.447 538.523L516.384 544.3L505.354 557.086C504.879 557.644 504.584 558.313 504.503 559.016C504.421 559.72 504.557 560.431 504.895 561.067C505.232 561.704 505.758 562.242 506.412 562.619C507.066 562.996 507.823 563.199 508.596 563.203C509.004 563.202 509.41 563.146 509.8 563.037L510.583 562.817L527.334 558.105L528.428 551.538L531.53 556.92L538.144 555.056L529.442 535.189Z" fill="#2F2E41"/>
<path d="M412.707 265.553L395.103 312.371L394.522 316.118C390.086 319.972 395.658 321.242 393.569 322.258C391.479 323.275 390.074 326.124 392.89 326.633C395.706 327.142 404.783 509.753 416.758 516.843C428.732 523.934 436.019 529.062 433.82 518.68C432.934 514.497 434.187 492.07 436 466.779C436.205 463.913 439.451 460.879 436.635 458.092C433.82 455.305 436.982 453.471 437.159 451.159C439.685 418.133 442.601 385.528 442.601 385.528C442.601 385.528 461.263 444.179 466.109 439.639C470.955 435.099 469.037 446.277 470.518 449.618C471.756 452.409 466.476 457.892 474.236 457.977C481.996 458.061 500.22 515.071 502.069 515.006C505.732 514.879 516.028 515.24 522.142 514.088C525.162 513.519 511.759 470.357 500.567 433.085C499.675 430.112 494.817 430.043 497.941 424.305C501.065 418.566 485.522 381.435 486.855 379.718C490.396 375.16 491.744 373.179 488.252 372.88C484.761 372.582 483.729 374.334 483.541 369.913C483.352 365.491 482.749 354.588 482.749 354.588C482.749 354.588 480.221 311.466 462.51 287.642L460.999 273.487L412.707 265.553Z" fill="#2F2E41"/>
<path d="M413.51 266.555C398.253 268.583 373.303 280.962 390.65 253.696L408.89 212.064C395.524 202.568 406.754 185.02 417.954 167.482L443.961 143.683H466.554L472.528 164.478C479.913 179.031 480.855 195.636 475.157 210.811C471.44 220.696 480.576 242.151 478.748 243.752C474.733 247.267 467.707 242.986 474.733 249.719C481.759 256.452 483.165 258.606 480.455 261.203C477.744 263.8 471.722 272.066 471.722 272.066L462.51 287.642L413.51 266.555Z" fill="#3F3D56"/>
<path d="M460.674 138.798C473.928 134.082 480.493 120.426 475.339 108.298C470.185 96.1692 455.263 90.1608 442.01 94.8774C428.757 99.5939 422.191 113.249 427.345 125.378C432.499 137.506 447.421 143.515 460.674 138.798Z" fill="#A0616A"/>
<path d="M485.985 147.452C489.486 152.037 491.828 157.278 492.841 162.795C490.02 164.447 486.735 165.314 483.386 165.293C483.272 164.891 483.158 164.49 483.029 164.088C482.058 160.98 480.614 158.012 478.739 155.272C478.996 158.227 478.559 161.197 477.456 163.984C475.686 163.248 473.789 162.8 471.851 162.661C470.272 162.661 468.715 162.997 467.302 163.642C465.661 158.662 464.15 154.083 463.078 150.797C463.045 159.033 449.853 166.214 435.459 165.174C434.939 164.876 440.154 151.332 439.651 151.02C438.497 150.321 437.376 149.563 436.255 148.82C440.967 142.159 446.084 135.023 445.207 133.952C445.272 135.275 440.106 141.639 434.485 147.645C431.365 145.549 449.09 111.443 440.333 108.677C440.187 109.882 438.254 109.882 435.898 109.629C435.277 107.642 434.352 105.745 433.152 103.994C433.308 105.758 433.076 107.532 432.47 109.213C430.144 109.213 427.824 109.438 425.549 109.882C425.023 109.124 424.442 108.399 423.811 107.711C423.873 108.549 423.846 109.391 423.73 110.224C421.406 110.685 419.489 111.22 419.213 111.651C417.393 111.041 420.496 108.291 419.359 106.864C416.467 103.295 420.756 98.0919 423.47 94.4047C429.042 86.8521 441.276 84.2354 449.935 88.7699C450.325 87.5359 452.323 86.7182 454.89 86.1681C455.978 85.9487 457.091 85.8538 458.204 85.8856C469.252 86.064 484.588 94.4047 485.189 104.5C485.238 105.511 485.319 106.611 485.4 107.785C486.18 119.085 485.222 129.507 493.654 137.773C496.708 140.761 496.74 154.915 495.571 162.2C492.533 159.271 490.372 147.883 485.985 147.452Z" fill="#2F2E41"/>
<path d="M548.542 549.08C549.009 549.1 549.471 548.988 549.865 548.759C550.26 548.53 550.568 548.196 550.748 547.802C550.928 547.408 550.972 546.972 550.873 546.555C550.773 546.137 550.536 545.757 550.193 545.467L550.037 544.9C550.058 544.854 550.078 544.809 550.099 544.763C550.569 543.747 551.357 542.881 552.363 542.274C553.369 541.666 554.549 541.344 555.754 541.348C556.96 541.352 558.137 541.682 559.138 542.297C560.139 542.911 560.92 543.783 561.382 544.802C563.227 548.869 565.576 552.943 566.155 557.243C566.41 559.144 566.302 561.071 565.837 562.938C570.171 554.286 572.422 544.883 572.436 535.365C572.437 532.976 572.292 530.59 572.002 528.216C571.762 526.271 571.429 524.339 571.004 522.42C568.681 512.013 563.693 502.258 556.45 493.957C552.945 492.207 550.11 489.515 548.328 486.245C547.682 485.07 547.226 483.815 546.973 482.52C547.368 482.567 548.464 477.056 548.166 476.718C548.717 475.952 549.703 475.572 550.305 474.825C553.298 471.112 557.422 471.76 559.575 476.807C564.174 478.931 564.219 482.454 561.397 485.842C559.601 487.997 559.355 490.914 557.779 493.221C557.941 493.411 558.11 493.595 558.272 493.785C561.235 497.271 563.817 501.015 565.981 504.962C565.455 500.54 566.083 496.067 567.814 491.91C569.569 488.037 572.858 484.775 575.754 481.426C576.52 480.526 577.56 479.855 578.743 479.496C579.926 479.138 581.198 479.108 582.4 479.411C583.601 479.714 584.677 480.336 585.492 481.199C586.307 482.062 586.825 483.126 586.979 484.258C586.985 484.307 586.99 484.357 586.996 484.406C586.566 484.628 586.145 484.864 585.733 485.113C585.215 485.43 584.814 485.882 584.582 486.41C584.35 486.939 584.298 487.519 584.433 488.076C584.567 488.632 584.883 489.138 585.337 489.527C585.791 489.917 586.363 490.171 586.978 490.258L587.041 490.267C586.888 491.686 586.617 493.092 586.231 494.473C589.946 507.622 581.925 512.411 570.472 512.626C570.219 512.745 569.973 512.863 569.72 512.976C571.895 518.616 573.259 524.491 573.778 530.453C574.072 533.97 574.055 537.504 573.726 541.018L573.746 540.894C574.576 536.985 576.854 533.459 580.196 530.91C585.16 527.178 592.172 525.804 597.527 522.805C598.097 522.47 598.758 522.292 599.435 522.29C600.111 522.289 600.774 522.464 601.344 522.796C601.915 523.128 602.371 523.602 602.657 524.163C602.943 524.724 603.047 525.348 602.958 525.962L602.937 526.093C602.138 526.39 601.361 526.733 600.609 527.119C600.179 527.341 599.758 527.577 599.346 527.826C598.829 528.142 598.427 528.595 598.196 529.123C597.964 529.652 597.911 530.232 598.046 530.788C598.181 531.345 598.496 531.851 598.95 532.24C599.404 532.63 599.977 532.884 600.592 532.971L600.655 532.98C600.7 532.986 600.739 532.992 600.784 532.998C599.42 535.978 597.506 538.721 595.125 541.107C592.802 552.586 582.824 553.675 572.151 550.332H572.145C570.974 554.989 569.277 559.522 567.082 563.858H548.996C548.931 563.674 548.872 563.484 548.814 563.3C550.488 563.396 552.169 563.305 553.819 563.027C552.477 561.52 551.135 560.002 549.793 558.495C549.763 558.467 549.735 558.437 549.709 558.406C549.028 557.635 548.341 556.87 547.66 556.098L547.66 556.097C547.623 553.733 547.921 551.375 548.542 549.08Z" fill="#F2F2F2"/>
<path d="M346.253 563.907C346.252 564.051 346.283 564.193 346.343 564.326C346.403 564.459 346.491 564.579 346.602 564.681C346.713 564.782 346.845 564.863 346.99 564.918C347.135 564.972 347.29 565 347.447 565H601.665C601.982 565 602.286 564.885 602.51 564.68C602.734 564.475 602.859 564.197 602.859 563.907C602.859 563.617 602.734 563.339 602.51 563.134C602.286 562.929 601.982 562.814 601.665 562.814H347.447C347.29 562.814 347.135 562.842 346.99 562.896C346.845 562.951 346.713 563.032 346.602 563.133C346.491 563.235 346.403 563.355 346.343 563.488C346.283 563.621 346.252 563.763 346.253 563.907Z" fill="#CCCCCC"/>
<path d="M467.441 328.083L414.799 372.783L346.175 353.414L330.195 289.343L382.837 244.643L451.46 264.012L467.441 328.083Z" fill="#F2F2F2"/>
<path d="M379.922 294.907C379.15 293.661 378.687 292.274 378.564 290.846C378.441 289.417 378.662 287.982 379.211 286.64C379.76 285.298 380.624 284.083 381.742 283.08C382.86 282.077 384.205 281.31 385.682 280.834L428.242 200.178L444.091 210.68L399.695 287.454C400.405 289.778 400.159 292.258 399.003 294.426C397.848 296.595 395.863 298.3 393.426 299.218C390.989 300.137 388.268 300.205 385.779 299.411C383.29 298.616 381.206 297.014 379.922 294.907Z" fill="#A0616A"/>
<path d="M446.416 175.124C442.485 174.766 438.526 175.461 435.02 177.126C431.514 178.79 428.612 181.351 426.668 184.498L409.215 212.749C409.215 212.749 447.52 228.23 456.694 217.136C460.561 212.46 462.955 204.592 464.431 197.053C464.936 194.518 464.863 191.915 464.216 189.406C463.568 186.898 462.36 184.54 460.668 182.48C458.976 180.42 456.836 178.703 454.383 177.437C451.93 176.171 449.218 175.383 446.416 175.124Z" fill="#3F3D56"/>
<path d="M337.378 164.657V244.023C337.374 246.175 336.437 248.238 334.774 249.76C333.111 251.281 330.857 252.138 328.505 252.142H261.983L262.595 251.426C297.593 230.043 322.393 201.515 336.595 165.566L337.378 164.657Z" fill="#6C63FF"/>
<path d="M56.8545 222.751L38.6009 251.683H75.1071L56.8545 222.751L38.6009 251.683H75.1071L56.8545 222.751Z" fill="#F2F2F2"/>
<path d="M195.004 359.053C228.444 359.053 255.553 334.245 255.553 303.644C255.553 273.042 228.444 248.234 195.004 248.234C161.564 248.234 134.456 273.042 134.456 303.644C134.456 334.245 161.564 359.053 195.004 359.053Z" fill="#F2F2F2"/>
</g>
<defs>
<clipPath id="clip0_1_6">
<rect width="603" height="565" fill="white"/>
</clipPath>
</defs>
</svg>
